<?xml version="1.0" standalone="no"?>
<!DOCTYPE svg PUBLIC "-//W3C//DTD SVG 1.0//EN" "http://www.w3.org/TR/2001/REC-SVG-20010904/DTD/svg10.dtd">
<svg xmlns="http://www.w3.org/2000/svg" xmlns:xlink="http://www.w3.org/1999/xlink" id="body_1" width="150" height="62">

<g transform="matrix(0.20064726 0 0 0.20064726 0.31714854 -0)">
	<g transform="matrix(0.1 0 -0 -0.1 0 309)">
        <path d="M0 1545L0 0L3730 0L7460 0L7460 1545L7460 3090L3730 3090L0 3090L0 1545zM7084 2919C 7191 2803 7415 2437 7408 2389C 7404 2359 7375 2342 7353 2356C 7343 2362 7299 2429 7255 2506C 7149 2690 7095 2770 7021 2857C 6946 2946 6940 2980 7001 2980C 7021 2980 7042 2965 7084 2919zM5094 2776C 5121 2726 5173 2626 5211 2554C 5248 2482 5288 2405 5299 2384C 5331 2325 5327 2287 5284 2246C 5224 2188 5216 2189 4930 2267C 4723 2323 4637 2351 4646 2360C 4651 2364 4696 2359 4745 2348C 4946 2304 4988 2325 4871 2410C 4806 2457 4786 2480 4809 2480C 4814 2480 4843 2468 4874 2454C 4985 2403 4982 2443 4867 2552C 4828 2589 4799 2622 4802 2626C 4806 2629 4848 2605 4897 2572C 5003 2499 5038 2483 5047 2506C 5052 2519 5033 2555 4976 2643C 4945 2689 4972 2673 5040 2605C 5106 2538 5140 2523 5140 2561C 5140 2572 5119 2629 5094 2688C 5049 2792 5009 2897 5011 2909C 5012 2920 5045 2867 5094 2776zM6918 2864C 7008 2809 7270 2413 7272 2329C 7273 2289 7237 2253 7136 2194C 7092 2168 7017 2121 6970 2090C 6923 2058 6805 1985 6708 1926C 6576 1847 6522 1820 6497 1820C 6477 1820 6414 1843 6344 1875C 6225 1931 6225 1931 6150 1925C 6079 1919 6074 1920 6048 1945C 6012 1979 6013 1993 6054 2041C 6096 2090 6100 2111 6100 2265C 6100 2383 6101 2390 6126 2419C 6140 2436 6202 2480 6263 2517C 6325 2553 6456 2638 6556 2705C 6655 2772 6756 2839 6781 2853C 6831 2884 6880 2887 6918 2864zM2946 2499C 3120 2482 3217 2452 3447 2345C 3561 2292 3664 2243 3675 2236C 3686 2229 3758 2188 3835 2145C 3912 2102 4009 2045 4051 2018L4051 2018L4127 1970L4309 1970C 4484 1970 4624 1956 4825 1918C 4858 1912 4905 1904 4930 1900C 4994 1890 5207 1833 5255 1813C 5277 1804 5315 1788 5340 1778C 5485 1718 5600 1642 5600 1606C 5600 1574 5569 1567 5528 1591C 5351 1693 5227 1743 5027 1797C 4927 1823 4920 1824 4645 1822C 4357 1821 4361 1821 4162 1773C 4127 1764 4096 1761 4092 1765C 4088 1769 4090 1775 4096 1777C 4133 1790 4215 1848 4215 1860C 4215 1882 3985 1886 2919 1880C 2035 1875 2001 1874 1981 1856C 1958 1835 1954 1794 1972 1755C 1992 1710 1971 1715 1917 1767C 1813 1869 1752 1885 1492 1878C 1378 1875 1307 1876 1303 1882C 1294 1897 1318 1908 1375 1915C 1655 1948 1640 1944 1640 1974C 1640 1986 1632 2004 1623 2013C 1589 2042 1539 2043 1409 2015C 1288 1990 1215 1975 940 1923C 860 1908 746 1895 660 1891C 580 1888 509 1881 502 1877C 486 1866 487 1835 505 1820C 513 1814 552 1804 592 1799C 684 1788 710 1782 710 1771C 710 1758 672 1750 604 1750C 536 1750 444 1726 416 1702C 406 1692 390 1669 380 1650C 359 1610 321 1573 269 1542C 225 1515 210 1514 210 1538C 210 1562 246 1663 277 1723C 306 1781 305 1833 274 1942C 261 1989 259 2013 266 2020C 280 2034 324 2034 439 2021C 520 2012 554 2014 668 2031C 810 2052 945 2084 1045 2120C 1078 2131 1175 2163 1260 2191C 1345 2218 1503 2270 1610 2305C 1832 2377 1923 2403 2030 2426C 2148 2450 2411 2498 2450 2503C 2528 2512 2843 2509 2946 2499zM5610 2217C 5610 2192 5439 1990 5418 1990C 5400 1990 5412 2029 5441 2071C 5483 2130 5581 2230 5597 2230C 5604 2230 5610 2224 5610 2217zM5737 2188C 5755 2175 5775 2153 5781 2138C 5791 2113 5788 2105 5754 2058C 5671 1943 5555 1820 5530 1820C 5509 1820 5464 1854 5450 1881C 5437 1905 5443 1917 5519 2018C 5591 2114 5678 2210 5693 2210C 5699 2210 5719 2200 5737 2188zM5906 1955C 5944 1924 5992 1886 6013 1869C 6067 1825 6065 1791 6003 1746C 5976 1726 5933 1699 5907 1685C 5849 1652 5828 1658 5739 1726C 5666 1782 5652 1807 5670 1849C 5686 1889 5800 2010 5821 2010C 5830 2010 5868 1985 5906 1955zM6256 1758C 6305 1721 6313 1700 6280 1700C 6254 1700 6193 1669 6120 1620C 5984 1529 5699 1354 5642 1327C 5536 1277 5422 1284 5386 1342C 5371 1366 5380 1371 5462 1387C 5502 1394 5566 1415 5605 1432C 5694 1473 5922 1606 6020 1675C 6156 1770 6173 1780 6200 1780C 6215 1780 6240 1770 6256 1758zM2375 1725C 2375 1713 2325 1706 2304 1714C 2295 1717 2292 1725 2295 1730C 2303 1744 2375 1739 2375 1725zM6323 1604C 6370 1579 6471 1511 6503 1482C 6540 1447 6537 1418 6489 1343C 6422 1240 6387 1223 6316 1256C 6297 1265 6275 1270 6266 1267C 6251 1261 6207 1173 6145 1025C 6127 981 6093 905 6070 855C 6047 806 6013 728 5994 683C 5945 563 5916 520 5882 520C 5854 520 5766 568 5695 623C 5618 681 5615 696 5660 784C 5677 816 5690 854 5690 868C 5690 882 5674 922 5655 957C 5603 1052 5608 1067 5680 1030C 5731 1004 5762 1005 5787 1033C 5805 1051 5886 1201 6007 1439C 6035 1494 6220 1620 6272 1620C 6283 1620 6305 1613 6323 1604zM1032 1473L1091 1414L1092 1307C 1092 1249 1089 1196 1085 1191C 1076 1175 885 1177 872 1193C 866 1200 860 1226 858 1250L858 1250L855 1295L660 1295L465 1295L462 1123C 460 989 462 950 472 949C 479 948 611 948 765 950C 1005 952 1048 950 1058 937C 1067 927 1070 890 1068 819L1068 819L1065 715L705 712L346 710L283 772L220 834L220 1121L220 1407L248 1436C 264 1452 294 1481 316 1500L316 1500L355 1535L664 1533L973 1532L1032 1473zM2012 1473L2070 1416L2070 1063L2070 710L2017 710C 1966 710 1963 712 1903 773L1903 773L1841 835L1838 920L1835 1005L1641 1005C 1468 1005 1446 1003 1436 988C 1415 954 1440 948 1601 949C 1686 950 1761 946 1768 942C 1777 936 1780 905 1778 824L1778 824L1775 715L1550 712L1326 710L1263 772L1200 834L1200 975L1200 1116L1263 1178L1325 1240L1580 1242L1835 1245L1835 1270L1835 1295L1535 1300L1235 1305L1232 1410C 1230 1490 1232 1517 1243 1525C 1252 1531 1382 1534 1605 1533L1605 1533L1953 1531L2012 1473zM2955 1470L3015 1410L3016 1217C 3017 1102 3014 1017 3007 1005C 3002 994 2977 965 2953 940C 2930 915 2910 890 2910 885C 2910 879 2944 841 2985 800C 3026 759 3060 722 3060 718C 3060 713 3001 710 2928 710L2928 710L2796 710L2704 800L2613 890L2548 890C 2464 890 2457 882 2462 788L2462 788L2465 715L2350 715L2235 715L2232 969C 2230 1166 2233 1225 2242 1232C 2263 1245 2448 1242 2456 1228C 2460 1221 2463 1200 2462 1180C 2459 1120 2461 1119 2626 1122L2626 1122L2775 1125L2775 1210L2775 1295L2460 1300L2145 1305L2142 1409C 2141 1465 2144 1517 2149 1524C 2156 1532 2259 1534 2526 1533L2526 1533L2894 1531L2955 1470zM3943 1530C 3947 1530 3949 1479 3948 1418L3948 1418L3945 1305L3696 1302C 3545 1301 3442 1296 3434 1289C 3428 1284 3424 1271 3427 1260C 3432 1242 3444 1240 3629 1238L3629 1238L3825 1235L3828 1123L3831 1010L3636 1010C 3508 1010 3439 1006 3435 999C 3431 993 3428 932 3429 862C 3430 792 3426 729 3422 722C 3416 713 3385 710 3304 712L3304 712L3195 715L3193 999C 3192 1155 3187 1287 3183 1291C 3179 1295 3159 1300 3140 1302L3140 1302L3105 1305L3102 1410C 3100 1490 3102 1517 3113 1525C 3124 1532 3733 1536 3943 1530zM4238 1531C 4248 1530 4250 1445 4248 1123L4248 1123L4245 715L4135 715L4025 715L4022 1114C 4021 1348 4024 1517 4029 1524C 4037 1533 4169 1538 4238 1531zM4613 1521C 4620 1516 4654 1471 4690 1421C 4726 1371 4762 1330 4770 1330C 4778 1330 4818 1375 4858 1430C 4898 1485 4934 1530 4938 1530C 4942 1530 5003 1531 5074 1532C 5157 1534 5205 1530 5207 1524C 5209 1518 5145 1427 5065 1321C 4984 1214 4921 1123 4923 1116C 4926 1110 4991 1021 5069 918C 5146 815 5210 726 5210 720C 5210 708 4952 706 4934 718C 4928 722 4891 769 4851 823C 4811 876 4775 920 4771 920C 4767 920 4728 873 4684 815L4684 815L4606 710L4468 710C 4392 710 4330 714 4330 719C 4330 724 4395 815 4475 920C 4555 1026 4620 1117 4620 1123C 4620 1128 4554 1220 4474 1326C 4394 1432 4330 1523 4333 1527C 4340 1538 4599 1533 4613 1521zM6589 1282C 6604 1254 6576 1218 6542 1222C 6491 1228 6505 1300 6556 1300C 6569 1300 6584 1292 6589 1282zM3765 621C 3852 627 4029 630 4046 626C 4067 620 4069 613 4072 552L4072 552L4075 485L4120 485L4165 485L4168 550C 4170 585 4176 617 4182 621C 4195 630 4230 620 4230 608C 4230 603 4240 606 4252 614C 4268 625 4298 630 4352 630C 4455 630 4470 617 4470 525C 4470 435 4454 420 4361 420C 4279 420 4268 429 4272 497C 4275 541 4277 545 4300 545C 4321 545 4326 540 4328 513C 4331 482 4334 480 4371 480L4371 480L4410 480L4410 525L4410 570L4330 570C 4283 570 4250 574 4250 580C 4250 586 4246 590 4240 590C 4234 590 4230 562 4230 525C 4230 436 4214 420 4122 420C 4033 420 4022 429 4018 505L4018 505L4015 565L3963 568L3910 571L3910 507C 3910 440 3895 412 3866 423C 3855 427 3850 449 3848 497L3848 497L3845 565L3805 570C 3746 578 3605 570 3621 559C 3629 554 3655 550 3681 550C 3736 550 3750 537 3750 488C 3750 433 3722 418 3629 422C 3558 425 3555 426 3555 450C 3555 474 3559 475 3620 481C 3690 487 3691 492 3623 495C 3567 496 3550 513 3550 567C 3550 623 3568 631 3675 625C 3719 623 3760 621 3765 621zM4545 524C 4545 432 4544 425 4525 425C 4507 425 4505 433 4502 519C 4500 588 4503 616 4512 622C 4539 639 4545 622 4545 524zM4791 620C 4807 611 4810 598 4810 533C 4810 430 4801 420 4702 420C 4600 420 4590 430 4590 526C 4590 590 4593 601 4612 614C 4638 633 4760 636 4791 620zM3456 526C 3471 514 3473 508 3464 493C 3453 476 3386 475 1860 475C 384 475 266 476 257 492C 249 504 250 513 259 524C 271 538 423 540 1854 540C 3216 540 3439 538 3456 526zM5654 518C 5679 478 5657 475 5290 472C 5055 470 4933 473 4920 480C 4898 492 4893 525 4913 533C 4919 536 5087 538 5284 537C 5612 535 5644 533 5654 518z" stroke="none" fill="#000000" fill-rule="nonzero" />
        <path d="M2470 2394C 2456 2392 2411 2385 2370 2379C 2203 2355 1841 2235 1780 2183C 1763 2169 1750 2151 1750 2143C 1750 2121 1816 2034 1856 2003C 1875 1989 1912 1973 1938 1968C 2013 1953 3500 1952 3500 1967C 3500 1974 3483 1984 3462 1989C 3416 2002 3367 2050 3376 2073C 3389 2108 3530 2123 3595 2096C 3617 2086 3634 2070 3643 2048C 3673 1979 3729 1951 3837 1950C 3865 1950 3891 1954 3894 1959C 3916 1994 3527 2209 3270 2305C 3126 2359 3059 2377 2945 2390C 2862 2399 2527 2402 2470 2394zM3055 2296C 3104 2287 3149 2274 3155 2268C 3162 2260 3155 2259 3130 2264C 2863 2314 2499 2308 2290 2249C 2044 2179 1962 2149 1930 2115C 1901 2084 1888 2083 1892 2112C 1896 2139 1939 2169 2022 2203C 2080 2226 2128 2240 2310 2286C 2449 2321 2888 2327 3055 2296z" stroke="none" fill="#000000" fill-rule="nonzero" />
        <path d="M4647 544C 4637 490 4647 479 4704 482L4704 482L4755 485L4755 525L4755 565L4704 568C 4655 571 4652 570 4647 544z" stroke="none" fill="#000000" fill-rule="nonzero" />
	</g>
</g>
</svg>